<svg width="32" height="32" viewBox="0 0 32 32" fill="none" xmlns="http://www.w3.org/2000/svg">
<path d="M25.0275 10.0267C23.3761 8.74667 21.3945 8.10667 19.3028 8L18.9725 8.32C20.844 8.74667 22.4954 9.6 24.0367 10.7733C22.1651 9.81333 20.0734 9.17333 17.8716 8.96C17.211 8.85333 16.6606 8.85333 16 8.85333C15.3394 8.85333 14.789 8.85333 14.1284 8.96C11.9266 9.17333 9.83486 9.81333 7.9633 10.7733C9.50459 9.6 11.156 8.74667 13.0275 8.32L12.6972 8C10.6055 8.10667 8.62385 8.74667 6.97248 10.0267C5.10092 13.44 4.11009 17.28 4 21.2267C5.65138 22.9333 7.9633 24 10.3853 24C10.3853 24 11.156 23.1467 11.7064 22.4C10.2752 22.08 8.95413 21.3333 8.07339 20.16C8.84404 20.5867 9.61468 21.0133 10.3853 21.3333C11.3761 21.76 12.367 21.9733 13.3578 22.1867C14.2385 22.2933 15.1193 22.4 16 22.4C16.8807 22.4 17.7615 22.2933 18.6422 22.1867C19.633 21.9733 20.6239 21.76 21.6147 21.3333C22.3853 21.0133 23.156 20.5867 23.9266 20.16C23.0459 21.3333 21.7248 22.08 20.2936 22.4C20.844 23.1467 21.6147 24 21.6147 24C24.0367 24 26.3486 22.9333 28 21.2267C27.8899 17.28 26.8991 13.44 25.0275 10.0267ZM12.367 19.3067C11.2661 19.3067 10.2752 18.3467 10.2752 17.1733C10.2752 16 11.2661 15.04 12.367 15.04C13.4679 15.04 14.4587 16 14.4587 17.1733C14.4587 18.3467 13.4679 19.3067 12.367 19.3067ZM19.633 19.3067C18.5321 19.3067 17.5413 18.3467 17.5413 17.1733C17.5413 16 18.5321 15.04 19.633 15.04C20.7339 15.04 21.7248 16 21.7248 17.1733C21.7248 18.3467 20.7339 19.3067 19.633 19.3067Z" fill="white"/>
</svg>
