<svg width="32" height="35" viewBox="0 0 32 35" fill="none" xmlns="http://www.w3.org/2000/svg">
<g filter="url(#filter0_d_101_22411)">
<path d="M22.035 9.04662C21.2651 8.16962 20.8407 7.04246 20.8408 5.87549H19.9102C20.0304 6.52055 20.2808 7.13437 20.646 7.67955C21.0111 8.22474 21.4835 8.68987 22.0342 9.04662H22.035Z" fill="white"/>
<path d="M13.2256 15.8346C12.5167 15.8383 11.8452 16.1688 11.2888 16.5744C10.7323 16.98 10.3386 17.5457 10.1702 18.1816C10.0017 18.8175 10.0682 19.4872 10.3591 20.0842C10.65 20.6812 11.4051 21.1171 12.0321 21.4225C11.6892 20.9851 11.2274 20.5229 11.1823 19.9845C11.1373 19.446 11.2543 18.9066 11.5204 18.4257C11.7865 17.9449 12.1914 17.5413 12.6903 17.2596C13.1892 16.9779 13.7628 16.829 14.3476 16.8294C14.6662 16.8325 14.9826 16.8779 15.2872 16.9642V13.4062C14.9761 13.3632 14.6621 13.3408 14.3476 13.3391H14.1767L14.0394 15.8889C13.7346 15.8135 13.5411 15.8267 13.2256 15.8346Z" fill="white"/>
<path d="M24.6725 10.6187V13.317C22.9348 13.3132 21.2425 12.7628 19.8351 11.7436V18.834C19.8316 20.5332 19.1541 22.1615 17.9514 23.3618C16.7486 24.562 15.1189 25.2361 13.4197 25.2361C12.1055 25.2386 10.8229 24.8332 9.74902 24.0757C10.6247 25.0177 11.7638 25.6741 13.0179 25.9594C14.2719 26.2448 15.5829 26.1458 16.7799 25.6755C17.977 25.2052 19.0046 24.3853 19.729 23.3225C20.4535 22.2598 20.841 21.0036 20.8413 19.7175V12.6491C22.2535 13.6615 23.9481 14.2045 25.6857 14.2012V10.7264C25.3451 10.7257 25.0056 10.6896 24.6725 10.6187V10.6187Z" fill="white"/>
<path d="M19.8354 18.8354V11.745C21.2483 12.7581 23.0432 13.5064 24.7818 13.5018L24.7276 10.6265C23.701 10.4099 22.7282 9.83686 22.0381 9.04662C21.4874 8.68987 21.015 8.22474 20.6499 7.67955C20.2847 7.13437 20.0343 6.52055 19.914 5.87549H17.3597V19.8407C17.3348 20.4486 17.1213 21.0336 16.7487 21.5145C16.3761 21.9954 15.8629 22.3483 15.2806 22.5241C14.6982 22.7 14.0755 22.6901 13.499 22.4958C12.9225 22.3016 12.4208 21.9326 12.0637 21.4401C11.486 21.1358 11.0266 20.6471 10.7585 20.0517C10.4904 19.4563 10.429 18.7884 10.5841 18.1541C10.7391 17.5198 11.1018 16.9556 11.6143 16.5511C12.1269 16.1465 12.7599 15.9249 13.4129 15.9215C13.7063 15.9239 13.9979 15.9692 14.2782 16.056V13.3569C13.0373 13.378 11.8294 13.7596 10.8017 14.4554C9.77394 15.1511 8.97082 16.1308 8.49022 17.275C8.00963 18.4192 7.87233 19.6786 8.09505 20.8995C8.31777 22.1204 8.8909 23.2501 9.74456 24.151C10.8287 24.8825 12.1123 25.2613 13.42 25.2358C15.1188 25.2358 16.7484 24.562 17.9511 23.3621C19.1538 22.1622 19.8314 20.5342 19.8354 18.8354Z" fill="white"/>
</g>
<defs>
<filter id="filter0_d_101_22411" x="-4" y="0" width="40" height="40" filterUnits="userSpaceOnUse" color-interpolation-filters="sRGB">
<feFlood flood-opacity="0" result="BackgroundImageFix"/>
<feColorMatrix in="SourceAlpha" type="matrix" values="0 0 0 0 0 0 0 0 0 0 0 0 0 0 0 0 0 0 127 0" result="hardAlpha"/>
<feOffset dy="4"/>
<feGaussianBlur stdDeviation="2"/>
<feComposite in2="hardAlpha" operator="out"/>
<feColorMatrix type="matrix" values="0 0 0 0 0 0 0 0 0 0 0 0 0 0 0 0 0 0 0.25 0"/>
<feBlend mode="normal" in2="BackgroundImageFix" result="effect1_dropShadow_101_22411"/>
<feBlend mode="normal" in="SourceGraphic" in2="effect1_dropShadow_101_22411" result="shape"/>
</filter>
</defs>
</svg>
