<svg width="32" height="32" viewBox="0 0 32 32" fill="none" xmlns="http://www.w3.org/2000/svg">
<path d="M25.5812 10.7424C25.5812 10.9565 25.5812 11.1707 25.5812 11.3543C25.5812 17.6876 20.6178 25 11.5707 25C8.77487 25 6.19895 24.2045 4 22.8583C4.37696 22.8889 4.78534 22.9195 5.1623 22.9195C7.4555 22.9195 9.59162 22.1546 11.288 20.8696C9.12042 20.839 7.29843 19.4316 6.70157 17.5346C7.01571 17.5958 7.29843 17.6264 7.64398 17.6264C8.08377 17.6264 8.52356 17.5652 8.93194 17.4428C6.67016 17.0145 4.97382 15.087 4.97382 12.7617C4.97382 12.7311 4.97382 12.7311 4.97382 12.7005C5.63351 13.0676 6.38743 13.2818 7.20419 13.3124C5.88482 12.4557 5.00524 10.9871 5.00524 9.30435C5.00524 8.41707 5.25654 7.59098 5.66492 6.88728C8.08377 9.79388 11.7277 11.6908 15.8115 11.905C15.7173 11.5684 15.6859 11.1707 15.6859 10.8035C15.6859 8.14171 17.8848 6 20.6178 6C22.0314 6 23.3194 6.58132 24.199 7.49919C25.3298 7.28502 26.3665 6.88728 27.3403 6.33655C26.9633 7.4686 26.178 8.38647 25.1728 8.99839C26.178 8.87601 27.1204 8.63124 28 8.23349C27.3717 9.21256 26.555 10.0692 25.5812 10.7424Z" fill="white"/>
</svg>
