<svg width="34" height="32" viewBox="0 0 34 32" fill="none" xmlns="http://www.w3.org/2000/svg">
<g filter="url(#filter0_d_101_22427)">
<path fill-rule="evenodd" clip-rule="evenodd" d="M26.4972 7.52473C27.5369 7.80465 28.3566 8.62441 28.6365 9.6641C29.1564 11.5635 29.1364 15.5224 29.1364 15.5224C29.1364 15.5224 29.1364 19.4612 28.6365 21.3607C28.3566 22.4004 27.5369 23.2201 26.4972 23.5C24.5977 23.9999 17 23.9999 17 23.9999C17 23.9999 9.42219 23.9999 7.50275 23.48C6.46306 23.2001 5.6433 22.3804 5.36338 21.3407C4.86353 19.4612 4.86353 15.5024 4.86353 15.5024C4.86353 15.5024 4.86353 11.5635 5.36338 9.6641C5.6433 8.62441 6.48305 7.78465 7.50275 7.50474C9.40219 7.00488 17 7.00488 17 7.00488C17 7.00488 24.5977 7.00488 26.4972 7.52473ZM20.8985 15.5025L14.5804 19.1414V11.8635L20.8985 15.5025Z" fill="white"/>
</g>
<defs>
<filter id="filter0_d_101_22427" x="-3" y="0" width="40" height="40" filterUnits="userSpaceOnUse" color-interpolation-filters="sRGB">
<feFlood flood-opacity="0" result="BackgroundImageFix"/>
<feColorMatrix in="SourceAlpha" type="matrix" values="0 0 0 0 0 0 0 0 0 0 0 0 0 0 0 0 0 0 127 0" result="hardAlpha"/>
<feOffset dy="4"/>
<feGaussianBlur stdDeviation="2"/>
<feComposite in2="hardAlpha" operator="out"/>
<feColorMatrix type="matrix" values="0 0 0 0 0 0 0 0 0 0 0 0 0 0 0 0 0 0 0.25 0"/>
<feBlend mode="normal" in2="BackgroundImageFix" result="effect1_dropShadow_101_22427"/>
<feBlend mode="normal" in="SourceGraphic" in2="effect1_dropShadow_101_22427" result="shape"/>
</filter>
</defs>
</svg>
