<svg width="7" height="11" viewBox="0 0 7 11" fill="none" xmlns="http://www.w3.org/2000/svg">
<path d="M0.325865 0.308662C0.11715 0.504172 -4.47227e-07 0.768645 -4.35177e-07 1.04432C-4.23127e-07 1.31999 0.11715 1.58447 0.325865 1.77998L4.29283 5.52609L0.325865 9.22002C0.11715 9.41553 -5.76987e-08 9.68001 -4.56486e-08 9.95568C-3.35985e-08 10.2314 0.11715 10.4958 0.325865 10.6913C0.430041 10.7891 0.553981 10.8668 0.690538 10.9197C0.827095 10.9727 0.973565 11 1.1215 11C1.26943 11 1.4159 10.9727 1.55246 10.9197C1.68902 10.8668 1.81296 10.7891 1.91713 10.6913L6.66852 6.26696C6.77356 6.16996 6.85692 6.05455 6.91382 5.92739C6.97071 5.80023 7 5.66384 7 5.52609C7 5.38833 6.97071 5.25195 6.91382 5.12479C6.85692 4.99763 6.77356 4.88222 6.66852 4.78521L1.91713 0.308662C1.81296 0.210857 1.68902 0.133228 1.55246 0.0802519C1.4159 0.0272756 1.26943 -5.1889e-07 1.1215 -5.12423e-07C0.973565 -5.05957e-07 0.827095 0.0272756 0.690538 0.080252C0.553981 0.133228 0.43004 0.210857 0.325865 0.308662Z" fill="#242424"/>
</svg>
