<svg width="48" height="44" viewBox="0 0 48 44" fill="none" xmlns="http://www.w3.org/2000/svg">
<path d="M23.9062 0C10.7241 0 0 9.25173 0 20.625C0 25.4294 1.94456 30.0848 5.48353 33.7748C6.18394 36.5987 5.33381 39.5903 3.22444 41.6528C2.34244 42.5153 2.96616 44 4.21875 44C8.226 44 12.0891 42.4652 14.9592 39.7582C17.7992 40.7491 20.804 41.25 23.9062 41.25C37.0884 41.25 48 31.9983 48 20.625C48 9.25173 37.0884 0 23.9062 0ZM12.8438 24.75C10.5174 24.75 8.625 22.8996 8.625 20.625C8.625 18.3504 10.5174 16.5 12.8438 16.5C15.1701 16.5 17.0625 18.3504 17.0625 20.625C17.0625 22.8996 15.1701 24.75 12.8438 24.75ZM24.0938 24.75C21.7674 24.75 19.875 22.8996 19.875 20.625C19.875 18.3504 21.7674 16.5 24.0938 16.5C26.4201 16.5 28.3125 18.3504 28.3125 20.625C28.3125 22.8996 26.4201 24.75 24.0938 24.75ZM35.3438 24.75C33.0174 24.75 31.125 22.8996 31.125 20.625C31.125 18.3504 33.0174 16.5 35.3438 16.5C37.6701 16.5 39.5625 18.3504 39.5625 20.625C39.5625 22.8996 37.6701 24.75 35.3438 24.75Z" fill="white"/>
</svg>
