<svg width="43" height="25" viewBox="0 0 43 25" fill="none" xmlns="http://www.w3.org/2000/svg">
<path d="M9.61105 17.2705L9.0069 17.8954V2.08339C9.0069 1.53088 8.78741 1.00099 8.39672 0.610299C8.00603 0.219609 7.47614 0.00012207 6.92363 0.00012207C6.37111 0.00012207 5.84122 0.219609 5.45053 0.610299C5.05984 1.00099 4.84035 1.53088 4.84035 2.08339V17.8954L4.2362 17.2705C3.84392 16.8782 3.31186 16.6578 2.75708 16.6578C2.2023 16.6578 1.67024 16.8782 1.27796 17.2705C0.885668 17.6627 0.665283 18.1948 0.665283 18.7496C0.665283 19.3044 0.885668 19.8364 1.27796 20.2287L5.4445 24.3952C5.64263 24.5849 5.87626 24.7336 6.13198 24.8327C6.38135 24.9429 6.65099 24.9999 6.92363 24.9999C7.19627 24.9999 7.4659 24.9429 7.71527 24.8327C7.97099 24.7336 8.20462 24.5849 8.40275 24.3952L12.5693 20.2287C12.7635 20.0345 12.9176 19.8039 13.0227 19.5501C13.1279 19.2963 13.182 19.0243 13.182 18.7496C13.182 18.4749 13.1279 18.2029 13.0227 17.9491C12.9176 17.6953 12.7635 17.4647 12.5693 17.2705C12.3751 17.0762 12.1445 16.9221 11.8907 16.817C11.6369 16.7119 11.3649 16.6578 11.0902 16.6578C10.8155 16.6578 10.5435 16.7119 10.2897 16.817C10.0359 16.9221 9.80529 17.0762 9.61105 17.2705ZM19.4233 4.16667H40.256C40.8085 4.16667 41.3384 3.94718 41.7291 3.55649C42.1198 3.1658 42.3393 2.63591 42.3393 2.08339C42.3393 1.53088 42.1198 1.00099 41.7291 0.610299C41.3384 0.219609 40.8085 0.00012207 40.256 0.00012207H19.4233C18.8707 0.00012207 18.3409 0.219609 17.9502 0.610299C17.5595 1.00099 17.34 1.53088 17.34 2.08339C17.34 2.63591 17.5595 3.1658 17.9502 3.55649C18.3409 3.94718 18.8707 4.16667 19.4233 4.16667Z" fill="white"/>
<rect x="17.3401" y="9.72217" width="18.055" height="4.16654" rx="2.08327" fill="white"/>
<rect x="17.3401" y="20.8328" width="12.4996" height="4.16654" rx="2.08327" fill="white"/>
</svg>
