<svg width="18" height="18" viewBox="0 0 18 18" fill="none" xmlns="http://www.w3.org/2000/svg">
<path d="M11.5001 14.8333C11.5001 15.7538 12.2463 16.5 13.1667 16.5C14.0872 16.5 14.8334 15.7538 14.8334 14.8333C14.8334 13.9129 14.0872 13.1667 13.1667 13.1667H5.13949C4.72479 13.1667 4.37319 12.8617 4.31454 12.4512M14.0001 10.6667H4.05961L2.75008 1.5H0.666748M6.50008 3.16667H16.5001L14.8334 8.16667M8.16675 14.8333C8.16675 15.7538 7.42056 16.5 6.50008 16.5C5.57961 16.5 4.83341 15.7538 4.83341 14.8333C4.83341 13.9129 5.57961 13.1667 6.50008 13.1667C7.42056 13.1667 8.16675 13.9129 8.16675 14.8333Z" stroke="white" stroke-width="1.25" stroke-linecap="round" stroke-linejoin="round"/>
</svg>
