<svg width="20" height="14" viewBox="0 0 20 14" fill="none" xmlns="http://www.w3.org/2000/svg">
<path d="M0.288239 4.29106L4.28897 0.293884C4.38222 0.200711 4.49293 0.126803 4.61477 0.0763783C4.73662 0.0259536 4.86721 0 4.99909 0C5.26544 0 5.52088 0.105713 5.70922 0.293884C5.89756 0.482055 6.00337 0.737269 6.00337 1.00338C6.00337 1.2695 5.89756 1.52471 5.70922 1.71288L3.4088 4.00127H15.0009C15.2662 4.00127 15.5206 4.10655 15.7081 4.29395C15.8957 4.48136 16.0011 4.73553 16.0011 5.00056C16.0011 5.26559 15.8957 5.51976 15.7081 5.70717C15.5206 5.89457 15.2662 5.99985 15.0009 5.99985H0.998367C0.800905 5.99887 0.608154 5.93951 0.444405 5.82925C0.280655 5.719 0.153234 5.56278 0.0781994 5.38029C0.00160599 5.19831 -0.0193195 4.99774 0.0180626 4.80389C0.0554428 4.61003 0.149456 4.43159 0.288239 4.29106ZM4.99909 7.99844H19.0016C19.1991 7.99943 19.3918 8.05879 19.5556 8.16904C19.7193 8.2793 19.8468 8.43552 19.9218 8.61801C19.9984 8.79999 20.0193 9.00056 19.9819 9.19441C19.9446 9.38826 19.8505 9.56671 19.7118 9.70724L15.711 13.7044C15.6181 13.7981 15.5074 13.8724 15.3856 13.9232C15.2637 13.9739 15.1329 14 15.0009 14C14.8689 14 14.7381 13.9739 14.6163 13.9232C14.4944 13.8724 14.3838 13.7981 14.2908 13.7044C14.197 13.6115 14.1226 13.501 14.0718 13.3792C14.0211 13.2574 13.9949 13.1268 13.9949 12.9949C13.9949 12.863 14.0211 12.7324 14.0718 12.6106C14.1226 12.4888 14.197 12.3783 14.2908 12.2854L16.5912 9.99703H4.99909C4.73383 9.99703 4.47943 9.89175 4.29186 9.70435C4.10429 9.51694 3.99891 9.26277 3.99891 8.99774C3.99891 8.73271 4.10429 8.47853 4.29186 8.29113C4.47943 8.10373 4.73383 7.99844 4.99909 7.99844Z" fill="#242424"/>
</svg>
